<?xml version="1.0" encoding="UTF-8"?>
<svg xmlns="http://www.w3.org/2000/svg" viewBox="0 0 196.99 69.2">
  <defs>
    <style>
      .cls-1 {
        fill: #61bbeb;
      }

      .cls-2 {
        fill: #4db0b0;
        mix-blend-mode: multiply;
      }

      .cls-3 {
        isolation: isolate;
      }

      .cls-4 {
        fill: #419ba6;
      }

      .cls-5 {
        fill: #153f8f;
      }

      .cls-6 {
        fill: #fc0;
      }
    </style>
  </defs>
  <g class="cls-3">
    <g id="Laag_2" data-name="Laag 2">
      <g id="hoofdmenu">
        <g>
          <path class="cls-1" d="M23.09,0C21.06,0,19.42,1.64,19.42,3.67V31.54c0,2.03,1.64,3.67,3.67,3.67h4.1V0h-4.1Z"/>
          <path class="cls-5" d="M55.71,0h-1.65c-.17,0-.32,.06-.43,.18-.11,.12-.17,.26-.17,.43V8.92h-9.94V.61c0-.17-.06-.31-.18-.43-.12-.11-.26-.17-.43-.17h-1.65c-.17,0-.31,.06-.43,.18-.11,.12-.17,.26-.17,.43V21.04c0,.17,.06,.32,.17,.43,.12,.11,.26,.17,.43,.17h1.65c.17,0,.32-.06,.43-.17,.11-.11,.17-.26,.17-.43V11.57h9.94v9.47c0,.17,.06,.32,.17,.43,.11,.11,.26,.18,.43,.18h1.65c.17,0,.32-.06,.43-.18,.11-.11,.17-.26,.17-.43V.61c0-.17-.06-.31-.17-.43-.11-.11-.26-.17-.43-.17Z"/>
          <path class="cls-5" d="M74.21,3.96h-1.53c-.17,0-.32,.06-.43,.17-.12,.11-.18,.26-.18,.43V14.58c0,1.52-.41,2.72-1.21,3.59-.8,.86-1.87,1.29-3.18,1.29-1.09,0-1.97-.33-2.63-.99-.66-.66-.99-1.61-.99-2.85V4.56c0-.17-.06-.31-.17-.43-.12-.12-.26-.18-.43-.18h-1.53c-.17,0-.32,.06-.43,.17-.12,.12-.18,.26-.18,.43v11.52c0,1.78,.56,3.23,1.66,4.32,1.1,1.09,2.56,1.65,4.34,1.65,1.08,0,2.07-.22,2.94-.66,.71-.36,1.32-.86,1.81-1.5v1.16c0,.17,.06,.32,.17,.43,.11,.12,.26,.18,.43,.18h1.53c.17,0,.32-.06,.43-.17,.12-.11,.18-.26,.18-.43V4.56c0-.17-.06-.32-.17-.43-.11-.12-.26-.18-.43-.18Z"/>
          <path class="cls-5" d="M97.25,6.18c1.11,0,2,.33,2.65,.97s.97,1.61,.97,2.86v11.03c0,.17,.06,.32,.17,.43,.12,.11,.26,.17,.43,.17h1.53c.17,0,.32-.06,.43-.17,.11-.11,.17-.26,.17-.43V9.56c0-1.78-.56-3.23-1.66-4.32-1.1-1.09-2.56-1.64-4.34-1.64-1.17,0-2.23,.3-3.16,.88-.82,.52-1.46,1.26-1.9,2.19-.43-.9-1.08-1.63-1.94-2.17-.97-.62-2.13-.93-3.45-.93-1,0-1.93,.22-2.76,.65-.66,.35-1.23,.83-1.69,1.43v-1.08c0-.17-.06-.32-.17-.43-.11-.11-.26-.18-.43-.18h-1.53c-.17,0-.32,.06-.43,.18s-.17,.26-.17,.43V21.04c0,.17,.06,.32,.17,.43,.11,.11,.26,.18,.43,.18h1.53c.17,0,.32-.06,.43-.17,.11-.11,.17-.26,.17-.43V11.03c0-1.52,.38-2.73,1.13-3.59,.75-.85,1.74-1.29,2.95-1.29,1.11,0,2,.33,2.65,.97,.65,.65,.98,1.61,.98,2.86v11.06c0,.17,.06,.32,.17,.43,.11,.12,.26,.18,.43,.18h1.53c.17,0,.32-.06,.43-.17,.11-.11,.17-.26,.17-.43V11.06c0-1.52,.38-2.73,1.14-3.59,.75-.85,1.74-1.29,2.94-1.29Z"/>
          <path class="cls-5" d="M115.94,21.24c.85-.45,1.58-1.05,2.18-1.79v1.58c0,.17,.06,.32,.17,.43,.11,.11,.26,.18,.43,.18h1.29c.17,0,.32-.06,.43-.17,.11-.11,.17-.26,.17-.43V9.28c0-1.13-.27-2.14-.81-3-.54-.86-1.31-1.54-2.29-2.01h0c-.98-.47-2.11-.71-3.35-.71-1.37,0-2.6,.29-3.65,.86-1.06,.58-1.9,1.38-2.51,2.39-.07,.15-.11,.28-.11,.38,0,.24,.11,.46,.35,.67l.82,.55c.18,.13,.34,.19,.5,.19,.31,0,.57-.16,.76-.48,.37-.6,.88-1.08,1.51-1.42,.63-.34,1.39-.51,2.26-.51,1.1,0,2.03,.29,2.76,.87,.73,.57,1.08,1.3,1.08,2.24v.24c0,.55-.12,.97-.36,1.25-.24,.28-.63,.46-1.18,.53l-3.98,.55c-1.66,.23-2.98,.8-3.91,1.7-.94,.91-1.42,2.07-1.42,3.46,0,1.49,.53,2.72,1.56,3.64,1.03,.91,2.37,1.38,3.98,1.38,1.19,0,2.3-.27,3.31-.8Zm-.44-2.46c-.78,.51-1.67,.77-2.63,.77s-1.7-.24-2.28-.72c-.58-.48-.86-1.1-.86-1.89,0-1.53,.95-2.41,2.91-2.7l.86-.12c2.36-.33,3.87-.53,4.52-.62v1.06c0,.74-.22,1.51-.67,2.29-.44,.78-1.07,1.43-1.86,1.95Z"/>
          <path class="cls-5" d="M132.96,3.53c-1.08,0-2.07,.22-2.94,.66-.71,.36-1.32,.86-1.81,1.5v-1.13c0-.17-.06-.32-.17-.43-.12-.12-.26-.18-.43-.18h-1.53c-.17,0-.31,.06-.43,.18-.11,.11-.17,.26-.17,.43V21.01c0,.17,.06,.32,.17,.43,.12,.12,.26,.18,.43,.18h1.53c.17,0,.31-.06,.43-.18,.11-.11,.17-.26,.17-.43V10.99c0-1.52,.41-2.73,1.21-3.59,.8-.86,1.87-1.29,3.18-1.29,1.11,0,2,.33,2.65,.97,.65,.65,.97,1.61,.97,2.86v11.06c0,.17,.06,.32,.17,.43,.11,.12,.26,.18,.43,.18h1.53c.17,0,.32-.06,.43-.18s.17-.26,.17-.43V9.49c0-1.78-.56-3.23-1.66-4.32-1.1-1.09-2.56-1.65-4.33-1.65Z"/>
          <path class="cls-5" d="M44.07,32.9c.41-.76,.98-1.37,1.69-1.82,.7-.45,1.48-.68,2.33-.68,1.44,0,2.66,.48,3.64,1.42,.32,.33,.72,.37,1.14,.06,.12-.12,.4-.43,.84-.93,.13-.15,.19-.33,.19-.51,0-.22-.07-.39-.2-.49-.73-.73-1.59-1.3-2.54-1.68-.96-.38-2-.58-3.1-.58-1.36,0-2.62,.35-3.77,1.04-1.15,.69-2.06,1.63-2.73,2.79-.67,1.16-1,2.45-1,3.82v7.17c0,1.37,.34,2.66,1,3.82,.66,1.16,1.58,2.1,2.73,2.79,1.15,.69,2.41,1.04,3.77,1.04,1.1,0,2.14-.19,3.1-.58,.95-.38,1.81-.95,2.54-1.68,.14-.13,.21-.3,.21-.49,0-.21-.07-.39-.2-.51-.45-.51-.71-.81-.86-.94-.37-.27-.79-.24-1.11,.08-.98,.94-2.21,1.42-3.65,1.42-.84,0-1.62-.23-2.33-.68-.71-.45-1.27-1.06-1.69-1.82-.41-.76-.62-1.58-.62-2.44v-7.17c0-.86,.21-1.69,.62-2.44Z"/>
          <path class="cls-5" d="M67.22,32.59c-1.04-.61-2.2-.91-3.43-.91s-2.38,.31-3.43,.91c-1.04,.6-1.88,1.44-2.48,2.5-.61,1.05-.91,2.21-.91,3.44v4.78c0,1.23,.31,2.39,.91,3.44,.61,1.05,1.44,1.9,2.48,2.5,1.04,.61,2.2,.91,3.43,.91s2.38-.31,3.43-.91,1.88-1.45,2.48-2.5c.61-1.05,.91-2.21,.91-3.44v-4.78c0-1.23-.31-2.39-.91-3.44-.6-1.05-1.44-1.89-2.48-2.5Zm.65,5.79v5.09c0,.74-.18,1.43-.54,2.05-.36,.62-.86,1.12-1.48,1.48s-1.32,.54-2.06,.54-1.43-.18-2.06-.54c-.62-.36-1.12-.86-1.48-1.48-.36-.62-.54-1.31-.54-2.05v-5.09c0-.74,.18-1.43,.54-2.06,.36-.62,.86-1.12,1.48-1.48,.63-.36,1.32-.54,2.06-.54s1.43,.18,2.06,.54c.62,.36,1.12,.86,1.48,1.48,.36,.62,.54,1.31,.54,2.06Z"/>
          <path class="cls-5" d="M82.51,31.65c-1.08,0-2.07,.22-2.94,.66-.71,.36-1.32,.86-1.81,1.5v-1.13c0-.16-.06-.31-.17-.43-.11-.11-.26-.17-.43-.17h-1.53c-.17,0-.32,.06-.43,.17-.11,.12-.17,.26-.17,.43v16.45c0,.17,.06,.32,.17,.43,.11,.11,.26,.18,.43,.18h1.53c.17,0,.32-.06,.43-.18,.11-.11,.17-.26,.17-.43v-10.02c0-1.52,.41-2.73,1.21-3.59,.8-.86,1.87-1.29,3.18-1.29,1.11,0,2,.33,2.65,.97,.65,.65,.98,1.61,.98,2.86v11.06c0,.17,.06,.32,.17,.43,.11,.12,.26,.18,.43,.18h1.53c.17,0,.32-.06,.43-.17,.12-.11,.18-.26,.18-.43v-11.52c0-1.78-.56-3.23-1.66-4.32-1.1-1.09-2.56-1.64-4.34-1.64Z"/>
          <path class="cls-5" d="M100.7,31.65c-1.08,0-2.07,.22-2.94,.66-.71,.36-1.32,.86-1.81,1.5v-1.13c0-.16-.06-.31-.17-.43-.11-.11-.26-.17-.43-.17h-1.53c-.17,0-.32,.06-.43,.17-.11,.12-.17,.26-.17,.43v16.45c0,.17,.06,.32,.17,.43,.11,.11,.26,.18,.43,.18h1.53c.17,0,.32-.06,.43-.18,.11-.11,.17-.26,.17-.43v-10.02c0-1.52,.41-2.73,1.21-3.59,.8-.86,1.87-1.29,3.18-1.29,1.11,0,2,.33,2.65,.97,.65,.65,.98,1.61,.98,2.86v11.06c0,.17,.06,.32,.17,.43,.11,.12,.26,.18,.43,.18h1.53c.17,0,.32-.06,.43-.17,.12-.11,.18-.26,.18-.43v-11.52c0-1.78-.56-3.23-1.66-4.32-1.1-1.09-2.56-1.64-4.34-1.64Z"/>
          <path class="cls-5" d="M129.86,36.32h0c.36-.63,.86-1.12,1.48-1.48,.63-.36,1.32-.54,2.06-.54,1.07,0,2.01,.37,2.78,1.08,.33,.33,.81,.36,1.19,.03,.28-.26,.51-.49,.73-.73,.14-.19,.22-.38,.22-.57,0-.21-.08-.4-.24-.56-.61-.58-1.32-1.05-2.12-1.38-.8-.33-1.67-.5-2.56-.5-1.23,0-2.38,.31-3.43,.91-1.04,.6-1.88,1.44-2.48,2.5-.61,1.05-.91,2.21-.91,3.44v4.78c0,1.23,.31,2.39,.91,3.44,.61,1.05,1.44,1.9,2.48,2.5,1.04,.61,2.2,.91,3.43,.91,.9,0,1.76-.17,2.56-.5,.8-.33,1.52-.8,2.12-1.39,.16-.16,.23-.34,.23-.55,0-.23-.08-.43-.22-.57-.23-.27-.48-.52-.72-.72-.37-.32-.86-.29-1.19,.03-.78,.72-1.72,1.09-2.79,1.09-.74,0-1.43-.18-2.06-.54-.62-.36-1.12-.86-1.48-1.48-.36-.62-.54-1.31-.54-2.05v-5.09c0-.74,.18-1.43,.54-2.06Z"/>
          <path class="cls-5" d="M151.28,32.07h-5.22v-3.04c0-.17-.06-.31-.17-.43-.11-.11-.26-.17-.43-.17h-1.53c-.17,0-.32,.06-.43,.18-.11,.12-.17,.26-.17,.43v3.04h-1.84c-.17,0-.32,.06-.43,.17-.11,.12-.17,.26-.17,.43v1.38c0,.17,.06,.32,.17,.43,.11,.11,.26,.17,.43,.17h1.84v10.24c0,1.39,.44,2.56,1.3,3.47,.87,.92,2.08,1.39,3.59,1.39h3.06c.17,0,.32-.06,.43-.17,.11-.11,.17-.26,.17-.43v-1.41c0-.17-.06-.31-.18-.43-.11-.11-.26-.17-.43-.17l-2.78-.03c-.74-.02-1.31-.25-1.77-.7-.44-.44-.67-1.04-.67-1.79v-9.93h5.22c.17,0,.32-.06,.43-.18,.11-.12,.17-.26,.17-.43v-1.41c0-.17-.06-.31-.18-.43-.11-.11-.26-.17-.43-.17Z"/>
          <path class="cls-5" d="M175.06,32.59c-1.04-.61-2.2-.91-3.43-.91s-2.38,.31-3.43,.91c-1.04,.6-1.88,1.44-2.48,2.5-.6,1.05-.91,2.21-.91,3.44v4.78c0,1.23,.31,2.39,.91,3.44,.61,1.06,1.44,1.9,2.48,2.5,1.04,.61,2.2,.91,3.43,.91s2.38-.31,3.43-.91c1.04-.6,1.88-1.44,2.48-2.5,.61-1.05,.91-2.21,.91-3.44v-4.78c0-1.23-.31-2.39-.91-3.44-.61-1.05-1.44-1.9-2.48-2.5Zm-1.37,14.41c-.62,.36-1.31,.54-2.05,.54s-1.43-.18-2.06-.54c-.62-.36-1.12-.86-1.48-1.48-.36-.62-.54-1.32-.54-2.06v-5.09c0-.74,.18-1.43,.54-2.06,.36-.62,.86-1.12,1.48-1.48,.63-.36,1.32-.54,2.06-.54s1.43,.18,2.06,.54c.62,.36,1.12,.86,1.48,1.48,.36,.63,.54,1.32,.54,2.06v5.09c0,.74-.18,1.43-.54,2.05-.36,.62-.86,1.12-1.48,1.48Z"/>
          <path class="cls-5" d="M194.68,33.29c-1.1-1.09-2.56-1.64-4.33-1.64-1.08,0-2.08,.22-2.94,.66-.71,.36-1.32,.86-1.81,1.5v-1.13c0-.17-.06-.31-.18-.43-.12-.11-.26-.17-.43-.17h-1.53c-.17,0-.32,.06-.43,.17-.11,.12-.17,.26-.17,.43v16.45c0,.17,.06,.32,.17,.43,.11,.12,.26,.18,.43,.18h1.53c.17,0,.32-.06,.43-.17,.11-.11,.18-.26,.18-.43v-10.02c0-1.52,.41-2.73,1.21-3.59,.8-.86,1.87-1.29,3.18-1.29,1.11,0,2,.33,2.65,.97s.98,1.61,.98,2.86v11.06c0,.17,.06,.32,.17,.43,.11,.11,.26,.18,.43,.18h1.53c.17,0,.32-.06,.43-.17,.12-.11,.18-.26,.18-.43v-11.52c0-1.78-.56-3.23-1.66-4.32Z"/>
          <path class="cls-5" d="M118.36,31.5c-1.21,0-3.15,.33-4.17,.87-.64,.33-3.82,2.23-3.82,6.71v4.51h.02c.06,1.1,.36,2.12,.89,3.04,.6,1.05,1.44,1.9,2.48,2.5,1.04,.61,2.2,.91,3.43,.91h4.44c.17,0,.31-.06,.43-.18,.11-.11,.17-.26,.17-.43v-1.41c0-.17-.06-.31-.18-.43-.12-.11-.26-.17-.43-.17h-4.44c-.74,0-1.43-.18-2.06-.54-.63-.36-1.12-.86-1.48-1.48-.33-.58-.51-1.22-.54-1.92v-.03c.07-.31,.16-.53,.29-.68,.24-.28,.63-.46,1.18-.54l3.98-.55c1.66-.23,2.98-.8,3.91-1.7,.94-.91,1.42-2.08,1.42-3.47,0-1.49-.53-2.72-1.56-3.64-1.03-.91-2.36-1.38-3.98-1.38Zm2.89,5.11c0,1.53-.95,2.41-2.91,2.71l-.86,.12c-2.22,.31-3.83,.53-4.52,.62v-1.06c0-.74,.22-1.51,.67-2.29,.44-.78,1.07-1.43,1.86-1.95,.78-.51,1.67-.77,2.63-.77s1.7,.24,2.28,.72c.58,.48,.85,1.1,.85,1.89Z"/>
          <path class="cls-5" d="M156.54,28.43h1.63c.31,0,.56,.25,.56,.56v1.63c0,.31-.25,.55-.55,.55h-1.63c-.31,0-.56-.25-.56-.56v-1.63c0-.31,.25-.55,.55-.55Z"/>
          <path class="cls-5" d="M161.37,47.54l-.24-.03c-.72-.02-1.31-.25-1.76-.7-.44-.44-.66-1.04-.66-1.78v-11.61c.01-.17-.05-.32-.16-.43-.12-.11-.26-.17-.43-.17h-1.53c-.17,0-.32,.06-.43,.17-.12,.11-.18,.26-.18,.43v11.88c0,1.38,.44,2.54,1.3,3.46,.87,.92,2.07,1.38,3.57,1.38h.51c.17,0,.31-.06,.43-.18,.11-.11,.17-.26,.17-.43v-1.4c0-.17-.06-.31-.17-.43-.11-.11-.26-.17-.42-.17Z"/>
          <g>
            <path class="cls-2" d="M0,26.77v10.62c0,6.59,4.52,12.74,11.95,12.74h15.24v-4.04c0-2.03-1.64-3.67-3.67-3.67H13.08c-5.61,0-5.31-3.9-5.31-3.9v-.8c0-.12,0-.24,0-.32v-10.62c0-.09,0-.21,0-.33V15.04C2.87,17.02,0,21.53,0,26.77Z"/>
            <path class="cls-6" d="M3.67,0C1.64,0,0,1.64,0,3.67V31.54C0,33.56,1.64,35.21,3.67,35.21H7.77V0H3.67Z"/>
            <g>
              <path class="cls-1" d="M3.67,35.21H7.76v-8.44c0-.09,0-.21,0-.33V15.04C2.87,17.02,0,21.53,0,26.77v4.77c0,2.03,1.64,3.67,3.67,3.67Z"/>
              <path class="cls-2" d="M13.64,21.72c8.36-.03,13.56-5.76,13.56-12.82V0h-4.1c-2.03,0-3.67,1.64-3.67,3.67v3.17h0v2.06c0,1.02,0,5.05-5.87,5.05-2.15,0-4.09,.4-5.79,1.08v11.4c.04-1.36,.5-4.72,5.87-4.72Z"/>
              <path class="cls-4" d="M20.5,1.07c-.33,.33-.6,.73-.79,1.17s-.29,.92-.29,1.43v3.17h0v2.06c0,.09,0,.2,0,.33v11.4c4.9-1.99,7.77-6.49,7.77-11.73V0h-4.1C22.08,0,21.16,.41,20.5,1.07Z"/>
            </g>
            <path class="cls-4" d="M3.67,35.21H7.76v-8.44c0-.09,0-.21,0-.33V15.04C2.87,17.02,0,21.53,0,26.77v4.77c0,2.03,1.64,3.67,3.67,3.67Z"/>
          </g>
          <g>
            <path class="cls-1" d="M41.41,60.08l2.8,7.9h.08l2.8-7.9h.86l-3.26,8.97h-.88l-3.26-8.97h.86Z"/>
            <path class="cls-1" d="M51.48,69.19c-.63,0-1.17-.15-1.63-.44-.46-.29-.81-.7-1.06-1.22-.25-.52-.38-1.12-.38-1.8s.13-1.28,.38-1.81c.25-.53,.6-.94,1.04-1.24,.44-.3,.95-.45,1.53-.45,.36,0,.72,.07,1.06,.2s.64,.34,.91,.61c.27,.27,.48,.62,.64,1.03s.24,.9,.24,1.47v.39h-5.26v-.69h4.46c0-.43-.09-.82-.26-1.17-.17-.35-.41-.62-.72-.82-.31-.2-.66-.3-1.07-.3-.43,0-.8,.11-1.13,.34-.32,.23-.58,.53-.76,.9-.18,.37-.28,.78-.28,1.23v.41c0,.53,.09,1,.28,1.4,.19,.4,.45,.71,.79,.93,.34,.22,.75,.33,1.21,.33,.32,0,.6-.05,.84-.15s.44-.23,.61-.4c.17-.17,.29-.35,.37-.55l.74,.24c-.1,.28-.27,.55-.5,.78-.23,.24-.52,.43-.87,.58s-.74,.22-1.19,.22Z"/>
            <path class="cls-1" d="M55.98,69.05v-6.73h.76v1.03h.06c.13-.34,.37-.61,.7-.82s.71-.31,1.14-.31c.06,0,.14,0,.21,0,.08,0,.14,0,.2,0v.79s-.1-.01-.18-.03c-.09-.01-.18-.02-.28-.02-.35,0-.66,.07-.94,.22-.27,.15-.49,.35-.65,.61-.16,.26-.24,.56-.24,.89v4.34h-.78Z"/>
            <path class="cls-1" d="M62.32,69.2c-.41,0-.78-.08-1.11-.24-.34-.16-.6-.39-.8-.69-.2-.3-.3-.67-.3-1.1,0-.33,.06-.61,.19-.84,.13-.23,.3-.41,.53-.56,.23-.15,.5-.26,.82-.35,.32-.08,.66-.15,1.04-.2,.38-.05,.7-.09,.96-.12,.26-.04,.46-.09,.6-.17,.14-.08,.21-.2,.21-.37v-.16c0-.46-.14-.82-.41-1.08-.27-.26-.66-.4-1.18-.4s-.88,.11-1.19,.32c-.3,.21-.52,.46-.64,.75l-.74-.27c.15-.37,.36-.66,.63-.88,.27-.22,.57-.38,.9-.48,.33-.1,.67-.15,1.01-.15,.26,0,.52,.03,.8,.1,.28,.07,.54,.18,.78,.35s.43,.39,.58,.69c.15,.29,.22,.66,.22,1.11v4.57h-.78v-1.06h-.05c-.09,.2-.23,.39-.42,.58-.18,.19-.41,.34-.69,.46-.28,.12-.6,.18-.98,.18Zm.11-.71c.41,0,.77-.09,1.08-.28,.3-.18,.54-.43,.7-.73,.16-.3,.25-.64,.25-1.01v-.97c-.06,.06-.16,.11-.29,.15-.14,.04-.29,.08-.47,.12s-.35,.06-.53,.09c-.17,.02-.33,.04-.47,.06-.38,.05-.7,.12-.97,.22-.27,.1-.47,.24-.62,.41-.14,.17-.21,.4-.21,.67,0,.41,.15,.72,.44,.95,.29,.22,.66,.34,1.1,.34Z"/>
            <path class="cls-1" d="M68.14,64.84v4.2h-.78v-6.73h.76v1.06h.07c.16-.34,.4-.62,.74-.83s.75-.31,1.24-.31c.45,0,.85,.09,1.19,.28,.34,.19,.61,.47,.8,.83,.19,.37,.29,.81,.29,1.34v4.36h-.78v-4.31c0-.55-.15-.99-.46-1.31-.31-.32-.72-.48-1.24-.48-.35,0-.67,.08-.94,.23-.27,.15-.49,.37-.65,.65-.16,.28-.24,.62-.24,1.01Z"/>
            <path class="cls-1" d="M76.99,69.19c-.55,0-1.04-.15-1.45-.44-.41-.29-.74-.7-.97-1.22-.23-.52-.35-1.13-.35-1.83s.12-1.3,.35-1.82c.23-.52,.56-.93,.97-1.22,.42-.29,.9-.44,1.46-.44,.41,0,.75,.07,1.02,.22,.27,.14,.49,.32,.65,.54,.16,.21,.29,.42,.38,.62h.07v-3.53h.78v8.97h-.76v-1.25h-.09c-.09,.2-.22,.41-.39,.63s-.39,.4-.66,.54-.61,.22-1.02,.22Zm.09-.71c.43,0,.81-.12,1.11-.36,.31-.24,.54-.57,.7-.98,.16-.42,.24-.9,.24-1.44s-.08-1.01-.24-1.43c-.16-.41-.39-.74-.7-.97-.31-.24-.68-.35-1.12-.35s-.83,.12-1.14,.37c-.31,.24-.54,.57-.7,.99-.16,.41-.24,.88-.24,1.4s.08,.99,.24,1.41c.16,.42,.39,.75,.7,1,.31,.25,.69,.37,1.13,.37Z"/>
            <path class="cls-1" d="M84.92,69.19c-.63,0-1.17-.15-1.63-.44-.46-.29-.81-.7-1.06-1.22-.25-.52-.37-1.12-.37-1.8s.12-1.28,.37-1.81,.6-.94,1.04-1.24c.44-.3,.95-.45,1.54-.45,.36,0,.72,.07,1.06,.2s.64,.34,.91,.61c.27,.27,.48,.62,.64,1.03,.16,.41,.24,.9,.24,1.47v.39h-5.26v-.69h4.46c0-.43-.09-.82-.26-1.17-.17-.35-.41-.62-.72-.82-.31-.2-.66-.3-1.07-.3-.43,0-.8,.11-1.13,.34s-.58,.53-.76,.9-.28,.78-.28,1.23v.41c0,.53,.09,1,.28,1.4,.19,.4,.45,.71,.79,.93,.34,.22,.75,.33,1.21,.33,.32,0,.6-.05,.84-.15s.44-.23,.61-.4c.16-.17,.29-.35,.37-.55l.74,.24c-.1,.28-.27,.55-.5,.78-.23,.24-.52,.43-.87,.58-.35,.14-.74,.22-1.19,.22Z"/>
            <path class="cls-1" d="M89.42,69.05v-6.73h.76v1.03h.06c.13-.34,.37-.61,.7-.82,.33-.21,.71-.31,1.14-.31,.06,0,.14,0,.21,0,.08,0,.14,0,.2,0v.79s-.1-.01-.18-.03-.18-.02-.28-.02c-.35,0-.66,.07-.93,.22-.27,.15-.49,.35-.65,.61-.16,.26-.24,.56-.24,.89v4.34h-.78Z"/>
            <path class="cls-1" d="M96.39,69.19c-.63,0-1.17-.15-1.63-.44-.46-.29-.81-.7-1.06-1.22-.25-.52-.37-1.12-.37-1.8s.12-1.28,.37-1.81,.6-.94,1.04-1.24c.44-.3,.95-.45,1.54-.45,.36,0,.72,.07,1.06,.2s.64,.34,.91,.61c.27,.27,.48,.62,.64,1.03,.16,.41,.24,.9,.24,1.47v.39h-5.26v-.69h4.46c0-.43-.09-.82-.26-1.17-.17-.35-.41-.62-.72-.82-.31-.2-.66-.3-1.07-.3-.43,0-.8,.11-1.13,.34s-.58,.53-.76,.9-.28,.78-.28,1.23v.41c0,.53,.09,1,.28,1.4,.19,.4,.45,.71,.79,.93,.34,.22,.75,.33,1.21,.33,.32,0,.6-.05,.84-.15s.44-.23,.61-.4c.16-.17,.29-.35,.37-.55l.74,.24c-.1,.28-.27,.55-.5,.78-.23,.24-.52,.43-.87,.58-.35,.14-.74,.22-1.19,.22Z"/>
            <path class="cls-1" d="M101.67,64.84v4.2h-.78v-6.73h.76v1.06h.07c.16-.34,.4-.62,.74-.83,.33-.21,.75-.31,1.24-.31,.45,0,.85,.09,1.19,.28,.34,.19,.61,.47,.8,.83,.19,.37,.29,.81,.29,1.34v4.36h-.78v-4.31c0-.55-.15-.99-.46-1.31-.31-.32-.72-.48-1.24-.48-.35,0-.67,.08-.94,.23-.27,.15-.49,.37-.65,.65-.16,.28-.24,.62-.24,1.01Z"/>
            <path class="cls-1" d="M112.04,61.16c-.16,0-.3-.05-.41-.16-.12-.11-.17-.24-.17-.4s.06-.29,.17-.4,.25-.16,.41-.16,.3,.06,.41,.16c.12,.11,.17,.24,.17,.4s-.06,.29-.17,.4c-.11,.11-.25,.16-.41,.16Zm-.4,7.88v-6.73h.78v6.73h-.78Z"/>
            <path class="cls-1" d="M119.07,63.8l-.71,.2c-.07-.2-.17-.38-.3-.55-.13-.16-.3-.29-.5-.39s-.46-.14-.76-.14c-.45,0-.83,.11-1.12,.32s-.44,.49-.44,.84c0,.29,.1,.52,.3,.7,.2,.18,.51,.32,.93,.43l1.02,.25c.56,.14,.99,.35,1.27,.65,.28,.3,.42,.67,.42,1.12,0,.38-.1,.72-.32,1.01-.21,.29-.5,.53-.88,.69-.38,.17-.81,.25-1.3,.25-.66,0-1.2-.15-1.62-.44-.43-.3-.7-.72-.82-1.28l.75-.18c.1,.4,.29,.7,.57,.91,.28,.2,.65,.31,1.11,.31,.52,0,.93-.12,1.24-.35,.31-.23,.46-.52,.46-.87,0-.27-.09-.5-.27-.69-.18-.19-.46-.32-.82-.41l-1.1-.26c-.58-.14-1.02-.36-1.3-.67-.28-.3-.42-.68-.42-1.13,0-.37,.1-.7,.3-.98,.2-.28,.48-.5,.83-.66,.35-.16,.76-.24,1.21-.24,.62,0,1.11,.14,1.48,.42s.64,.66,.8,1.15Z"/>
            <path class="cls-1" d="M124.47,69.05v-6.73h.76v1.03h.07c.13-.35,.36-.62,.67-.82,.31-.2,.69-.3,1.13-.3,.46,0,.85,.11,1.15,.33s.52,.52,.67,.9h.06c.15-.37,.4-.67,.74-.89,.34-.22,.76-.33,1.25-.33,.62,0,1.12,.2,1.48,.59,.36,.39,.54,.97,.54,1.72v4.51h-.78v-4.51c0-.53-.14-.93-.41-1.2-.27-.27-.63-.4-1.07-.4-.51,0-.91,.16-1.19,.47-.28,.32-.42,.72-.42,1.2v4.43h-.8v-4.58c0-.46-.13-.82-.38-1.1s-.61-.42-1.07-.42c-.31,0-.59,.08-.83,.23-.25,.15-.44,.36-.58,.63-.14,.27-.21,.58-.21,.93v4.31h-.78Z"/>
            <path class="cls-1" d="M137.83,69.19c-.63,0-1.17-.15-1.63-.44-.46-.29-.81-.7-1.06-1.22-.25-.52-.37-1.12-.37-1.8s.12-1.28,.37-1.81,.6-.94,1.04-1.24c.44-.3,.95-.45,1.54-.45,.36,0,.72,.07,1.06,.2s.64,.34,.91,.61c.27,.27,.48,.62,.64,1.03,.16,.41,.24,.9,.24,1.47v.39h-5.26v-.69h4.46c0-.43-.09-.82-.26-1.17-.17-.35-.41-.62-.72-.82-.31-.2-.66-.3-1.07-.3-.43,0-.8,.11-1.13,.34s-.58,.53-.76,.9-.28,.78-.28,1.23v.41c0,.53,.09,1,.28,1.4,.19,.4,.45,.71,.79,.93,.34,.22,.75,.33,1.21,.33,.32,0,.6-.05,.84-.15s.44-.23,.61-.4c.16-.17,.29-.35,.37-.55l.74,.24c-.1,.28-.27,.55-.5,.78-.23,.24-.52,.43-.87,.58-.35,.14-.74,.22-1.19,.22Z"/>
            <path class="cls-1" d="M143.11,64.84v4.2h-.78v-6.73h.76v1.06h.07c.16-.34,.4-.62,.74-.83,.33-.21,.75-.31,1.24-.31,.45,0,.85,.09,1.19,.28,.34,.19,.61,.47,.8,.83,.19,.37,.29,.81,.29,1.34v4.36h-.78v-4.31c0-.55-.15-.99-.46-1.31-.31-.32-.72-.48-1.24-.48-.35,0-.67,.08-.94,.23-.27,.15-.49,.37-.65,.65-.16,.28-.24,.62-.24,1.01Z"/>
            <path class="cls-1" d="M154.06,63.8l-.71,.2c-.07-.2-.17-.38-.3-.55-.13-.16-.3-.29-.5-.39s-.46-.14-.76-.14c-.46,0-.83,.11-1.12,.32s-.44,.49-.44,.84c0,.29,.1,.52,.3,.7,.2,.18,.51,.32,.93,.43l1.02,.25c.56,.14,.99,.35,1.27,.65,.28,.3,.42,.67,.42,1.12,0,.38-.11,.72-.32,1.01-.21,.29-.5,.53-.88,.69-.38,.17-.81,.25-1.3,.25-.66,0-1.2-.15-1.62-.44-.43-.3-.7-.72-.82-1.28l.75-.18c.1,.4,.29,.7,.57,.91s.65,.31,1.11,.31c.52,0,.93-.12,1.24-.35,.31-.23,.46-.52,.46-.87,0-.27-.09-.5-.27-.69-.18-.19-.46-.32-.82-.41l-1.1-.26c-.58-.14-1.02-.36-1.3-.67-.28-.3-.42-.68-.42-1.13,0-.37,.1-.7,.3-.98,.2-.28,.48-.5,.83-.66,.35-.16,.76-.24,1.21-.24,.62,0,1.11,.14,1.48,.42,.37,.28,.64,.66,.8,1.15Z"/>
            <path class="cls-1" d="M158.65,69.19c-.63,0-1.17-.15-1.63-.44-.46-.29-.81-.7-1.06-1.22-.25-.52-.37-1.12-.37-1.8s.12-1.28,.37-1.81,.6-.94,1.04-1.24c.44-.3,.95-.45,1.54-.45,.36,0,.72,.07,1.06,.2s.64,.34,.91,.61c.27,.27,.48,.62,.64,1.03,.16,.41,.24,.9,.24,1.47v.39h-5.26v-.69h4.46c0-.43-.09-.82-.26-1.17-.17-.35-.41-.62-.72-.82-.31-.2-.66-.3-1.07-.3-.43,0-.8,.11-1.13,.34s-.58,.53-.76,.9-.28,.78-.28,1.23v.41c0,.53,.09,1,.28,1.4,.19,.4,.45,.71,.79,.93,.34,.22,.75,.33,1.21,.33,.32,0,.6-.05,.84-.15s.44-.23,.61-.4c.16-.17,.29-.35,.37-.55l.74,.24c-.1,.28-.27,.55-.5,.78-.23,.24-.52,.43-.87,.58-.35,.14-.74,.22-1.19,.22Z"/>
            <path class="cls-1" d="M163.93,64.84v4.2h-.78v-6.73h.76v1.06h.07c.16-.34,.4-.62,.74-.83,.33-.21,.75-.31,1.24-.31,.45,0,.85,.09,1.19,.28,.34,.19,.61,.47,.8,.83,.19,.37,.29,.81,.29,1.34v4.36h-.78v-4.31c0-.55-.15-.99-.46-1.31-.31-.32-.72-.48-1.24-.48-.35,0-.67,.08-.94,.23-.27,.15-.49,.37-.65,.65-.16,.28-.24,.62-.24,1.01Z"/>
            <path class="cls-1" d="M171.85,69.05l-2.03-6.73h.82l1.59,5.55h.06l1.59-5.55h.83l1.58,5.54h.06l1.59-5.54h.82l-2.03,6.73h-.81l-1.59-5.51h-.08l-1.59,5.51h-.81Z"/>
            <path class="cls-1" d="M182.84,69.19c-.63,0-1.17-.15-1.63-.44-.46-.29-.81-.7-1.06-1.22-.25-.52-.37-1.12-.37-1.8s.12-1.28,.37-1.81,.6-.94,1.04-1.24c.44-.3,.95-.45,1.54-.45,.36,0,.72,.07,1.06,.2s.64,.34,.91,.61c.27,.27,.48,.62,.64,1.03,.16,.41,.24,.9,.24,1.47v.39h-5.26v-.69h4.46c0-.43-.09-.82-.26-1.17-.17-.35-.41-.62-.72-.82-.31-.2-.66-.3-1.07-.3-.43,0-.8,.11-1.13,.34s-.58,.53-.76,.9-.28,.78-.28,1.23v.41c0,.53,.09,1,.28,1.4,.19,.4,.45,.71,.79,.93,.34,.22,.75,.33,1.21,.33,.32,0,.6-.05,.84-.15s.44-.23,.61-.4c.16-.17,.29-.35,.37-.55l.74,.24c-.1,.28-.27,.55-.5,.78-.23,.24-.52,.43-.87,.58-.35,.14-.74,.22-1.19,.22Z"/>
            <path class="cls-1" d="M187.34,69.05v-6.73h.76v1.03h.06c.13-.34,.37-.61,.7-.82,.33-.21,.71-.31,1.14-.31,.06,0,.14,0,.21,0,.08,0,.14,0,.2,0v.79s-.1-.01-.18-.03-.18-.02-.28-.02c-.35,0-.66,.07-.93,.22-.27,.15-.49,.35-.65,.61-.16,.26-.24,.56-.24,.89v4.34h-.78Z"/>
            <path class="cls-1" d="M191.8,69.05v-8.97h.78v8.97h-.78Zm.71-2.54v-1.02s.17,0,.17,0l3.15-3.17h.99l-3.11,3.12h-.07s-1.12,1.07-1.12,1.07Zm3.48,2.54l-2.73-3.46,.56-.54,3.17,3.99h-1Z"/>
          </g>
        </g>
      </g>
    </g>
  </g>
</svg>